<?xml version="1.0" standalone="no"?>
<!DOCTYPE svg PUBLIC "-//W3C//DTD SVG 20010904//EN"
 "http://www.w3.org/TR/2001/REC-SVG-20010904/DTD/svg10.dtd">
<svg version="1.0" xmlns="http://www.w3.org/2000/svg"
 width="700.000000pt" height="700.000000pt" viewBox="0 0 700.000000 700.000000"
 preserveAspectRatio="xMidYMid meet">
<metadata>
Created by potrace 1.11, written by Peter Selinger 2001-2013
</metadata>
<g transform="translate(0.000000,700.000000) scale(0.100000,-0.100000)"
fill="#000000" stroke="none">
<path d="M4856 5265 l-856 -860 205 -203 204 -204 771 771 c691 691 775 771
803 772 18 0 122 0 233 0 l201 0 -1 292 -1 292 -351 0 -351 1 -857 -861z"/>
<path d="M3434 4370 c-17 -4 -571 -277 -1229 -606 -1037 -518 -1204 -605
-1244 -644 -91 -90 -110 -228 -48 -346 29 -55 88 -103 185 -150 332 -162 941
-458 982 -477 33 -16 53 -53 307 -560 149 -298 283 -558 298 -577 104 -140
331 -150 450 -18 45 50 1207 2371 1225 2448 7 30 12 72 12 92 -4 84 -32 119
-346 437 -166 167 -323 321 -349 342 -67 53 -160 76 -243 59z m-293 -1231
l411 -411 -40 -42 c-22 -22 -65 -67 -95 -98 -31 -32 -59 -58 -63 -58 -4 0
-193 185 -420 412 l-412 412 101 98 c56 54 102 98 104 98 2 0 188 -185 414
-411z m-411 -414 l410 -409 -102 -103 -103 -103 -412 412 -413 413 102 102
c56 56 103 101 105 100 1 -1 187 -186 413 -412z"/>
</g>
</svg>
